<svg xmlns="http://www.w3.org/2000/svg" viewBox="0 0 150.919 64.953">
  <defs>
    <style>
      .cls-1 {
        fill: #fff;
      }

      .cls-2 {
        fill: #491010;
      }
    </style>
  </defs>
  <g id="Symbol_27_1" data-name="Symbol 27 – 1" transform="translate(-885 -49.472)">
    <path id="Path_2" data-name="Path 2" class="cls-1" d="M364.931,33.8a1.616,1.616,0,0,0-1.631,1.631V87.006a1.416,1.416,0,0,0,1.41,1.41h1.962c.829,0,3.842.221,5.749-2.4h0a20.751,20.751,0,0,0,10.973,3.317,20.095,20.095,0,0,0,.249-40.188,19.871,19.871,0,0,0-10.7,2.93V35.431a1.616,1.616,0,0,0-1.631-1.631Zm18.463,45.854a10.42,10.42,0,1,1,10.42-10.42A10.428,10.428,0,0,1,383.394,79.654Z" transform="translate(622.066 25.014)"/>
    <g id="Group_1" data-name="Group 1" transform="translate(885.586 49.472)">
      <path id="Path_3" data-name="Path 3" class="cls-2" d="M4.788,12.595H2.3v-.912H4.788V8.2H5.921v3.483H9.21v.912H5.921v7.325c0,1.686.663,2.322,2.045,2.322H9.21v.912H7.856c-2.018,0-3.068-.94-3.068-3.206Z" transform="translate(-2.3 -5.934)"/>
      <path id="Path_4" data-name="Path 4" class="cls-2" d="M40.554,16.335h1.88V10.282c0-2.736-1.3-3.759-3.151-3.759-2.1,0-3.759,1.631-3.759,4.726v5.113H37.4v.912h-5v-.912h1.99V.912H32.4V0h3.123V3.731c0,.387-.028,3.566-.083,4.284H35.5a4.1,4.1,0,0,1,3.98-2.488c2.294,0,4.091,1.271,4.091,4.616v6.191h1.88v.912H40.554Z" transform="translate(-24.08)"/>
      <path id="Path_5" data-name="Path 5" class="cls-2" d="M89.313,20c2.764,0,4.809,2.018,4.809,5.473v.5H85.36V26c0,2.957,1.52,5,4.063,5a3.321,3.321,0,0,0,3.538-2.957h1.05A4.358,4.358,0,0,1,89.423,32c-3.317,0-5.224-2.377-5.224-6C84.172,22.432,86.411,20,89.313,20Zm-3.9,5.086h7.573C92.878,22.4,91.386,21,89.34,21,87.323,20.967,85.72,22.57,85.415,25.086Z" transform="translate(-61.562 -14.472)"/>
    </g>
    <circle id="Ellipse_1" data-name="Ellipse 1" class="cls-1" cx="4.782" cy="4.782" r="4.782" transform="translate(1026.356 104.834)"/>
    <path id="Path_6" data-name="Path 6" class="cls-1" d="M23.982,119.343a10.992,10.992,0,0,1-4.284.691,10.428,10.428,0,1,1,6.689-18.85,1.972,1.972,0,0,0,2.515-.221l4.118-4.118a1.962,1.962,0,0,0-.138-2.9,20.13,20.13,0,1,0-.442,31.62,2.333,2.333,0,0,0,.221-3.51l-1.133-1.133A7.073,7.073,0,0,0,23.982,119.343Z" transform="translate(884.822 -15.283)"/>
    <path id="Path_7" data-name="Path 7" class="cls-1" d="M203,94.11v19.016a18.548,18.548,0,1,0,37.092.166V94.331a1.616,1.616,0,0,0-1.631-1.631h-6.468a1.616,1.616,0,0,0-1.631,1.631v18.989a8.776,8.776,0,1,1-17.551.028V98.339a5.615,5.615,0,0,0-5.611-5.611H204.41A1.375,1.375,0,0,0,203,94.11Z" transform="translate(738.059 -17.606)"/>
    <path id="Path_8" data-name="Path 8" class="cls-1" d="M151.442,59h-4.809a2.418,2.418,0,0,0-2.432,2.432v42.98a2.218,2.218,0,0,0,2.211,2.211h1.962a5.5,5.5,0,0,0,5.5-5.5V61.432A2.436,2.436,0,0,0,151.442,59Z" transform="translate(780.607 6.779)"/>
  </g>
</svg>
