<svg xmlns="http://www.w3.org/2000/svg" viewBox="0 0 81.781 35.197">
  <defs>
    <style>
      .cls-1 {
        fill: #ed1c25;
      }

      .cls-2 {
        fill: #491010;
      }
    </style>
  </defs>
  <g id="Symbol_28_1" data-name="Symbol 28 – 1" transform="translate(-57 -25.803)">
    <path id="Path_2" data-name="Path 2" class="cls-1" d="M364.184,33.8a.876.876,0,0,0-.884.884V62.632a.767.767,0,0,0,.764.764h1.063a3.519,3.519,0,0,0,3.115-1.3h0a11.245,11.245,0,0,0,5.946,1.8,10.889,10.889,0,0,0,.135-21.777,10.768,10.768,0,0,0-5.8,1.588V34.684a.876.876,0,0,0-.884-.884Zm10.005,24.848A5.647,5.647,0,1,1,379.835,53,5.651,5.651,0,0,1,374.189,58.648Z" transform="translate(-251.913 -2.935)"/>
    <g id="Group_1" data-name="Group 1" transform="translate(57.318 25.803)">
      <path id="Path_3" data-name="Path 3" class="cls-2" d="M3.648,10.581H2.3v-.494H3.648V8.2h.614v1.887H6.044v.494H4.262V14.55c0,.914.359,1.258,1.108,1.258h.674V16.3H5.31c-1.093,0-1.663-.509-1.663-1.737Z" transform="translate(-2.3 -6.972)"/>
      <path id="Path_4" data-name="Path 4" class="cls-2" d="M36.818,8.852h1.018V5.572c0-1.483-.7-2.037-1.707-2.037-1.138,0-2.037.884-2.037,2.561V8.867h1.018v.494H32.4V8.867h1.078V.494H32.4V0h1.692V2.022c0,.21-.015,1.932-.045,2.322h.03A2.223,2.223,0,0,1,36.234,3c1.243,0,2.217.689,2.217,2.5V8.852h1.018v.494H36.818Z" transform="translate(-27.892)"/>
      <path id="Path_5" data-name="Path 5" class="cls-2" d="M86.97,20c1.5,0,2.606,1.093,2.606,2.966v.27H84.828v.015c0,1.6.824,2.711,2.2,2.711a1.8,1.8,0,0,0,1.917-1.6h.569A2.362,2.362,0,0,1,87.03,26.5c-1.8,0-2.831-1.288-2.831-3.25C84.184,21.318,85.4,20,86.97,20Zm-2.112,2.756h4.1c-.06-1.453-.869-2.217-1.977-2.217A2.231,2.231,0,0,0,84.858,22.756Z" transform="translate(-71.933 -17.004)"/>
    </g>
    <circle id="Ellipse_1" data-name="Ellipse 1" class="cls-1" cx="2.591" cy="2.591" r="2.591" transform="translate(133.599 55.803)"/>
    <path id="Path_6" data-name="Path 6" class="cls-1" d="M13.077,105.667a5.957,5.957,0,0,1-2.322.374A5.651,5.651,0,1,1,14.38,95.827a1.069,1.069,0,0,0,1.363-.12l2.232-2.232A1.063,1.063,0,0,0,17.9,91.9a10.908,10.908,0,1,0-.24,17.134,1.264,1.264,0,0,0,.12-1.9l-.614-.614A3.833,3.833,0,0,0,13.077,105.667Z" transform="translate(56.822 -50.283)"/>
    <path id="Path_7" data-name="Path 7" class="cls-1" d="M203,93.464v10.3a10.051,10.051,0,1,0,20.1.09V93.584a.876.876,0,0,0-.884-.884h-3.5a.876.876,0,0,0-.884.884v10.29a4.755,4.755,0,1,1-9.511.015V95.755a3.043,3.043,0,0,0-3.04-3.04h-1.513A.745.745,0,0,0,203,93.464Z" transform="translate(-115.622 -53.013)"/>
    <path id="Path_8" data-name="Path 8" class="cls-1" d="M148.124,59h-2.606a1.31,1.31,0,0,0-1.318,1.318v23.29a1.2,1.2,0,0,0,1.2,1.2h1.063a2.979,2.979,0,0,0,2.981-2.981V60.318A1.32,1.32,0,0,0,148.124,59Z" transform="translate(-65.629 -24.361)"/>
  </g>
</svg>
