<?xml version="1.0" encoding="iso-8859-1"?>
<!-- Generator: Adobe Illustrator 19.0.0, SVG Export Plug-In . SVG Version: 6.00 Build 0)  -->
<svg version="1.1" id="Capa_1" xmlns="http://www.w3.org/2000/svg" xmlns:xlink="http://www.w3.org/1999/xlink" x="0px" y="0px"
	 viewBox="0 0 512 512" style="enable-background:new 0 0 512 512;" xml:space="preserve">
  <defs>
    <style>
      .cls-1 {
        fill: #ED2925;
      }
    </style>
  </defs>
<g>
	<g>
		<path class="cls-1" d="M507.68,297.535c-10.294-17.825-33.127-24.009-51.007-13.861c-3.246,1.6-44.76,22.003-78.956,36.392
			c-3.818,1.607-5.611,6.006-4.005,9.825s6.004,5.609,9.825,4.005c35.859-15.09,79.548-36.654,79.985-36.869
			c0.144-0.071,0.284-0.146,0.423-0.226c10.747-6.198,24.539-2.503,30.744,8.241c7.184,12.425-4.033,26.066-9.524,31.639
			c-37.246,30.045-140.312,107.091-174.953,107.091c-38.399,0-146.149-22.827-172.5-28.537v-122.54
			c52.249-7.678,79.928,1.951,137.932,22.167c17.646,6.149,37.637,13.114,61.935,20.883c3.622,1.578,13.67,7.234,9.841,20.019
			c-2.329,7.77-9.839,15.187-20.824,13.136c-14.769-2.772-101.685-14.561-105.379-15.061c-4.103-0.566-7.885,2.32-8.44,6.427
			c-0.557,4.105,2.32,7.885,6.427,8.44c0.9,0.122,90.228,12.237,104.626,14.94c2.234,0.419,4.404,0.617,6.501,0.617
			c15.928,0,27.641-11.431,31.464-24.194c4.023-13.431-0.159-30.433-18.536-38.213c-0.026-0.012-0.052-0.023-0.079-0.035
			c-0.023-0.01-0.045-0.022-0.069-0.031c-0.102-0.043-0.204-0.072-0.307-0.11s-0.202-0.082-0.309-0.116
			c-24.271-7.753-44.268-14.722-61.912-20.87c-57.847-20.157-88.331-30.763-142.871-23.149v-6.272c0-4.144-3.358-7.502-7.502-7.502
			h-22.499v-7.498c0-4.144-3.358-7.502-7.502-7.502H7.502c-4.144,0-7.502,3.358-7.502,7.502v164.992
			c0,4.143,3.358,7.502,7.502,7.502c4.143,0,7.502-3.359,7.502-7.502v-157.49h77.702v179.998H77.71v-7.498
			c0-4.144-3.358-7.502-7.502-7.502c-4.144,0-7.502,3.358-7.502,7.502v7.498H7.502c-4.144,0-7.502,3.358-7.502,7.502
			c0,4.144,3.358,7.502,7.502,7.502h92.706c4.144,0,7.502-3.358,7.502-7.502v-7.879h22.499c4.144,0,7.502-3.359,7.502-7.502v-5.301
			c31.388,6.782,133.544,28.184,172.5,28.184c20.502,0,56.856-18.267,111.137-55.841c39.147-27.099,73.223-54.566,73.562-54.84
			c0.208-0.168,0.406-0.347,0.595-0.535C511.803,331.241,516.354,312.539,507.68,297.535z M122.706,421.15c0,0,0,0.014,0,0.02v7.223
			H107.71v-0.001V278.774h14.997V421.15z"/>
	</g>
</g>
<g>
	<g>
		<path class="cls-1" d="M420.312,53.223H190.255c-15.167,0-27.507,12.34-27.507,27.507v130.037c0,15.167,12.34,27.507,27.507,27.507h230.057
			c15.167,0,27.507-12.34,27.507-27.507V80.73C447.819,65.563,435.478,53.223,420.312,53.223z M177.751,80.73
			c0-6.895,5.608-12.503,12.503-12.503h230.057c6.894,0,12.503,5.608,12.503,12.503v2.504H177.751V80.73z M432.815,210.768
			c0,6.894-5.608,12.503-12.503,12.503H190.255c-6.895,0-12.503-5.608-12.503-12.503v-72.514h255.063V210.768z M177.751,123.25
			V98.238h255.063v25.012H177.751z"/>
	</g>
</g>
<g>
	<g>
		<path class="cls-1" d="M270.276,173.257h-70.021c-4.144,0-7.502,3.358-7.502,7.502c0,4.144,3.358,7.502,7.502,7.502h70.021
			c4.144,0,7.502-3.358,7.502-7.502C277.778,176.615,274.42,173.257,270.276,173.257z"/>
	</g>
</g>
<g>
	<g>
		<path class="cls-1" d="M410.309,173.257h-20.005c-4.144,0-7.502,3.358-7.502,7.502c0,4.144,3.358,7.502,7.502,7.502h20.005
			c4.143,0,7.502-3.358,7.502-7.502C417.811,176.615,414.453,173.257,410.309,173.257z"/>
	</g>
</g>
<g>
</g>
<g>
</g>
<g>
</g>
<g>
</g>
<g>
</g>
<g>
</g>
<g>
</g>
<g>
</g>
<g>
</g>
<g>
</g>
<g>
</g>
<g>
</g>
<g>
</g>
<g>
</g>
<g>
</g>
</svg>
