<svg xmlns="http://www.w3.org/2000/svg" viewBox="0 0 86.276 88.666">
  <defs>
    <style>
      .cls-1 {
        fill: #5b1c18;
      }
    </style>
  </defs>
  <g id="Group_182" data-name="Group 182" transform="translate(0)">
    <g id="Group_181" data-name="Group 181" transform="translate(0 0)">
      <g id="Group_176" data-name="Group 176" transform="translate(0 1.285)">
        <g id="Group_169" data-name="Group 169" transform="translate(0.521 32.094)">
          <path id="Path_172" data-name="Path 172" class="cls-1" d="M595,147.453h-.276l-58.264-7.692a2.155,2.155,0,0,1-1.474-.875,2.117,2.117,0,0,1-.415-1.658l6.817-43.2a2.236,2.236,0,0,1,2.441-1.842l57.159,7.6a2.174,2.174,0,0,1,1.428.829,2.057,2.057,0,0,1,.414,1.612l-5.757,43.341A2.029,2.029,0,0,1,595,147.453Zm-55.731-11.7,53.888,7.093,5.159-39.012-52.875-7Z" transform="translate(-534.54 -92.167)"/>
        </g>
        <g id="Group_170" data-name="Group 170" transform="translate(0 12.489)">
          <path id="Path_173" data-name="Path 173" class="cls-1" d="M536.4,74.1a2.221,2.221,0,0,1-1.382-.507,2.047,2.047,0,0,1-.783-1.474l-.783-7.646A8.438,8.438,0,0,1,541,55.22l54.533-5.573a8.243,8.243,0,0,1,6.172,1.842A8.438,8.438,0,0,1,604.8,57.2l.783,7.646a2.289,2.289,0,0,1-.461,1.612,2.047,2.047,0,0,1-1.474.783l-67.015,6.817A.345.345,0,0,1,536.4,74.1Zm60.06-20.128h-.415L541.465,59.6a4.077,4.077,0,0,0-3.639,4.468l.553,5.481,62.686-6.4-.553-5.481a4.027,4.027,0,0,0-1.474-2.764A4.21,4.21,0,0,0,596.459,53.976Z" transform="translate(-533.408 -49.601)"/>
        </g>
        <g id="Group_171" data-name="Group 171" transform="translate(23.412 35.272)">
          <path id="Path_174" data-name="Path 174" class="cls-1" d="M600.2,148h-.276l-13.818-1.842a2.174,2.174,0,0,1-1.428-.829,2.057,2.057,0,0,1-.415-1.612l5.665-42.742a2.182,2.182,0,0,1,2.441-1.888l13.818,1.842a2.182,2.182,0,0,1,1.888,2.441l-5.665,42.742A2.3,2.3,0,0,1,600.2,148Zm-11.423-5.849,9.534,1.244,5.112-38.413-9.534-1.244Z" transform="translate(-584.24 -99.067)"/>
        </g>
        <g id="Group_172" data-name="Group 172" transform="translate(24.491 14.731)">
          <path id="Path_175" data-name="Path 175" class="cls-1" d="M590.183,74.473a2.159,2.159,0,0,1-2.165-1.981l-1.428-13.91a2.289,2.289,0,0,1,.461-1.612,2.047,2.047,0,0,1,1.474-.783l16.9-1.7a2.173,2.173,0,0,1,2.4,1.934l1.428,13.91a2.29,2.29,0,0,1-.461,1.612,2.047,2.047,0,0,1-1.474.783l-16.9,1.7A.415.415,0,0,1,590.183,74.473Zm.967-14.094.967,9.534,12.574-1.29-.967-9.534Z" transform="translate(-586.582 -54.469)"/>
        </g>
        <g id="Group_173" data-name="Group 173" transform="translate(32.968)">
          <path id="Path_176" data-name="Path 176" class="cls-1" d="M615.586,41.653l-.461-4.33a5.219,5.219,0,0,0,4.7-5.757,5.254,5.254,0,0,0-10.455,1.059l-4.33.461A9.629,9.629,0,1,1,622.08,38.2,9.762,9.762,0,0,1,615.586,41.653Z" transform="translate(-604.986 -22.486)"/>
        </g>
        <g id="Group_174" data-name="Group 174" transform="translate(17.86 1.472)">
          <path id="Path_177" data-name="Path 177" class="cls-1" d="M581.819,44.943a9.623,9.623,0,1,1,9.58-10.593l-4.33.461a5.219,5.219,0,0,0-5.757-4.7,5.254,5.254,0,0,0,1.059,10.455l.461,4.33A7.461,7.461,0,0,1,581.819,44.943Z" transform="translate(-572.186 -25.681)"/>
        </g>
        <g id="Group_175" data-name="Group 175" transform="translate(32.69 9.387)">
          <rect id="Rectangle_291" data-name="Rectangle 291" class="cls-1" width="4.376" height="7.876" transform="matrix(0.995, -0.101, 0.101, 0.995, 0, 0.443)"/>
        </g>
      </g>
      <g id="Group_180" data-name="Group 180" transform="translate(66.945)">
        <g id="Group_177" data-name="Group 177" transform="translate(10.063 13.62)">
          <path id="Path_178" data-name="Path 178" class="cls-1" d="M702.813,54.579a2.186,2.186,0,0,1-1.151-4.053,7.631,7.631,0,0,1,1.98-.875,8.513,8.513,0,0,1,4.56-.138,2.178,2.178,0,1,1-1.013,4.237,4.68,4.68,0,0,0-2.257.046,3.609,3.609,0,0,0-.967.415A1.808,1.808,0,0,1,702.813,54.579Z" transform="translate(-700.604 -49.267)"/>
        </g>
        <g id="Group_178" data-name="Group 178">
          <path id="Path_179" data-name="Path 179" class="cls-1" d="M680.941,28.5a2.161,2.161,0,0,1-1.612-.691,2.186,2.186,0,0,1,.138-3.086,3.018,3.018,0,0,0,.691-.829,4.441,4.441,0,0,0,.691-2.119,2.167,2.167,0,1,1,4.329.184,8.646,8.646,0,0,1-1.428,4.33,12,12,0,0,1-1.382,1.658A1.982,1.982,0,0,1,680.941,28.5Z" transform="translate(-678.756 -19.696)"/>
        </g>
        <g id="Group_179" data-name="Group 179" transform="translate(7.001 1.916)">
          <path id="Path_180" data-name="Path 180" class="cls-1" d="M696.141,33.917a2.049,2.049,0,0,1-1.612-.737,2.186,2.186,0,0,1,.138-3.086l6.264-5.665a2.184,2.184,0,1,1,2.948,3.224l-6.264,5.665A2.171,2.171,0,0,1,696.141,33.917Z" transform="translate(-693.956 -23.856)"/>
        </g>
      </g>
    </g>
  </g>
</svg>
