<svg id="Group_199" data-name="Group 199" xmlns="http://www.w3.org/2000/svg" viewBox="0 0 88.85 95.547">
  <defs>
    <style>
      .cls-1 {
        fill: #5b1c18;
      }
    </style>
  </defs>
  <g id="Group_192" data-name="Group 192" transform="translate(14.831 0)">
    <path id="Path_186" data-name="Path 186" class="cls-1" d="M259.022,415.282c-7.185,0-14.37-4.422-20.358-12.666-6.31-8.659-10.732-20.588-12.39-33.623a2.658,2.658,0,0,1,2.3-2.994l51.816-6.725a2.658,2.658,0,0,1,2.994,2.3c1.7,13.035.461,25.747-3.408,35.7-4.1,10.5-10.732,16.857-18.7,17.871C260.542,415.19,259.805,415.282,259.022,415.282Zm-27.036-44.354c1.8,11.1,5.665,21.141,11.054,28.51,5.435,7.462,11.7,11.146,17.594,10.363s11.008-5.942,14.37-14.509c3.316-8.475,4.514-19.16,3.408-30.353Z" transform="translate(-226.253 -359.253)"/>
  </g>
  <g id="Group_193" data-name="Group 193" transform="translate(63.965 7.369)">
    <path id="Path_187" data-name="Path 187" class="cls-1" d="M340.746,409.542a13.992,13.992,0,0,1-6.356-1.612,2.7,2.7,0,1,1,2.487-4.79,8.557,8.557,0,0,0,4.882.967c7.323-.967,12.067-12.758,10.363-25.839a2.671,2.671,0,0,1,5.3-.691c2.119,16.489-4.468,30.491-15.015,31.827A10.068,10.068,0,0,1,340.746,409.542Z" transform="translate(-332.93 -375.253)"/>
  </g>
  <g id="Group_194" data-name="Group 194" transform="translate(68.213 7.185)">
    <path id="Path_188" data-name="Path 188" class="cls-1" d="M344.846,382.106a2.684,2.684,0,0,1-.368-5.343l14.6-1.888a2.671,2.671,0,1,1,.691,5.3l-14.6,1.888A.683.683,0,0,1,344.846,382.106Z" transform="translate(-342.153 -374.853)"/>
  </g>
  <g id="Group_195" data-name="Group 195" transform="translate(0 18.377)">
    <path id="Path_189" data-name="Path 189" class="cls-1" d="M215.031,429.251c-4.744,0-9.35-2.579-13.219-7.461-4.007-5.02-6.771-12.021-7.738-19.621a2.671,2.671,0,0,1,5.3-.691c.875,6.679,3.224,12.666,6.632,16.95,3.086,3.869,6.632,5.8,9.995,5.343a7.983,7.983,0,0,0,4.468-2.165,2.708,2.708,0,0,1,3.593,4.053,13.717,13.717,0,0,1-7.369,3.5C216.137,429.2,215.584,429.251,215.031,429.251Z" transform="translate(-194.053 -399.153)"/>
  </g>
  <g id="Group_196" data-name="Group 196" transform="translate(0.138 16.259)">
    <path id="Path_190" data-name="Path 190" class="cls-1" d="M197.046,401.806a2.684,2.684,0,0,1-.368-5.343l14.6-1.888a2.671,2.671,0,0,1,.691,5.3l-14.6,1.888C197.276,401.76,197.184,401.806,197.046,401.806Z" transform="translate(-194.353 -394.553)"/>
  </g>
  <g id="Group_197" data-name="Group 197" transform="translate(46.855 52.836)">
    <rect id="Rectangle_293" data-name="Rectangle 293" class="cls-1" width="5.389" height="24.872" transform="matrix(0.992, -0.129, 0.129, 0.992, 0, 0.693)"/>
  </g>
  <g id="Group_198" data-name="Group 198" transform="translate(28.854 73.304)">
    <path id="Path_191" data-name="Path 191" class="cls-1" d="M259.97,540.65A2.683,2.683,0,0,1,257.3,538.3l-.507-3.777a11.1,11.1,0,0,1,9.58-12.436l27.589-3.593a11.122,11.122,0,0,1,8.2,2.211,10.944,10.944,0,0,1,4.237,7.369l.507,3.777a2.581,2.581,0,0,1-.553,1.981,2.637,2.637,0,0,1-1.8,1.013L260.246,540.6C260.2,540.65,260.108,540.65,259.97,540.65Zm35.465-16.857a3.965,3.965,0,0,0-.737.046l-27.589,3.593a5.708,5.708,0,0,0-4.928,6.4l.138,1.105,38.966-5.066-.138-1.105a5.791,5.791,0,0,0-2.165-3.823A6.257,6.257,0,0,0,295.435,523.793Z" transform="translate(-256.7 -518.407)"/>
  </g>
</svg>
