<svg id="Group_191" data-name="Group 191" xmlns="http://www.w3.org/2000/svg" viewBox="0 0 115.718 91.29">
  <defs>
    <style>
      .cls-1 {
        fill: #5b1c18;
      }
    </style>
  </defs>
  <g id="Group_190" data-name="Group 190" transform="translate(0 0)">
    <g id="Group_183" data-name="Group 183" transform="translate(20.067 35.094)">
      <rect id="Rectangle_292" data-name="Rectangle 292" class="cls-1" width="4.652" height="49.191" transform="translate(0 1.301) rotate(-16.242)"/>
    </g>
    <g id="Group_184" data-name="Group 184" transform="translate(10.466)">
      <path id="Path_181" data-name="Path 181" class="cls-1" d="M99.58,20.038a2.035,2.035,0,0,1-.737.276,2.273,2.273,0,0,1-2.671-1.888,11.563,11.563,0,0,1,4.007-10.962L26.024,41.87a2.308,2.308,0,1,1-1.934-4.191L101.008,1.937a2.322,2.322,0,0,1,3.086,1.105l1.8,3.869a2.215,2.215,0,0,1,.046,1.8A2.151,2.151,0,0,1,104.692,10a6.935,6.935,0,0,0-4.007,7.554A2.264,2.264,0,0,1,99.58,20.038Z" transform="translate(-22.715 -1.713)"/>
    </g>
    <g id="Group_188" data-name="Group 188" transform="translate(44.448 37.025)">
      <g id="Group_185" data-name="Group 185" transform="translate(0 6.154)">
        <path id="Path_182" data-name="Path 182" class="cls-1" d="M109.763,114.915a3.984,3.984,0,0,1-.783.322,3.626,3.626,0,0,1-1.7.092,3.9,3.9,0,0,1-1.382-.691,6.153,6.153,0,0,1-.921-.967c-.23-.322-.507-.645-.737-1.013,0,0-6.817-9.212-6.909-9.35-.138-.184-.276-.415-.415-.645-.138-.276-.23-.507-.322-.737a2.726,2.726,0,0,1,.23-1.981,2.358,2.358,0,0,1,1.059-1.059,2.313,2.313,0,0,1,.6-.23,2.466,2.466,0,0,1,2.349.368,7.447,7.447,0,0,1,1.336,1.612l4.56,6.494.322-8.014c.046-.645.046-1.105.092-1.336a3.421,3.421,0,0,1,.461-1.244,2.293,2.293,0,0,1,.783-.691c.184-.092.415-.184.645-.276a2.811,2.811,0,0,1,1.382-.046,2.749,2.749,0,0,1,1.2.645,2.365,2.365,0,0,1,.691,1.105,3.953,3.953,0,0,1,.138.783v.691l-.046.553-.783,11.192a11.293,11.293,0,0,1-.092,1.244,9.286,9.286,0,0,1-.23,1.29,2.876,2.876,0,0,1-.783,1.29A2.809,2.809,0,0,1,109.763,114.915Z" transform="translate(-96.496 -95.461)"/>
      </g>
      <g id="Group_186" data-name="Group 186" transform="translate(17.829 4.066)">
        <path id="Path_183" data-name="Path 183" class="cls-1" d="M143.079,108.878c-.184.092-.415.184-.645.276a2.559,2.559,0,0,1-2.165-.276,3.038,3.038,0,0,1-1.336-1.934l-3.547-12.159a3.12,3.12,0,0,1,.092-2.349,2.434,2.434,0,0,1,1.105-1.151,2.314,2.314,0,0,1,.6-.23,2.7,2.7,0,0,1,2.165.23,3.243,3.243,0,0,1,1.382,1.981l3.547,12.159a3.255,3.255,0,0,1-.092,2.4A2.733,2.733,0,0,1,143.079,108.878Z" transform="translate(-135.206 -90.927)"/>
      </g>
      <g id="Group_187" data-name="Group 187" transform="translate(26.4)">
        <path id="Path_184" data-name="Path 184" class="cls-1" d="M161.592,101.629a2.314,2.314,0,0,1-.6.23,2.641,2.641,0,0,1-2.211-.276,3.215,3.215,0,0,1-1.336-1.934l-3.454-11.883a3.346,3.346,0,0,1,.138-2.533,2.81,2.81,0,0,1,1.059-1.013,10.138,10.138,0,0,1,.967-.415l4.007-1.151A11.8,11.8,0,0,1,163.3,82.1a5.334,5.334,0,0,1,2.4.507,5.513,5.513,0,0,1,1.888,1.52,6.959,6.959,0,0,1,1.151,2.257,5.763,5.763,0,0,1-.553,4.974,6.377,6.377,0,0,1-2.257,1.981,13.856,13.856,0,0,1-2.349.967l-1.75.507.967,3.27a3.255,3.255,0,0,1-.092,2.4A2.677,2.677,0,0,1,161.592,101.629ZM161.5,89.976a5.341,5.341,0,0,0,1.244-.507c.092-.046.138-.092.23-.138.23-.184.415-.322.461-.507a1.574,1.574,0,0,0-.046-.783,1.391,1.391,0,0,0-.553-.829s-.461-.23-2.073.23l-1.013.276.737,2.487Z" transform="translate(-153.814 -82.1)"/>
      </g>
    </g>
    <g id="Group_189" data-name="Group 189" transform="translate(0 10.676)">
      <path id="Path_185" data-name="Path 185" class="cls-1" d="M114.589,76.482a1.925,1.925,0,0,1-.461.184L17.222,105.407a2.32,2.32,0,0,1-2.9-1.566L.088,56.216a2.294,2.294,0,0,1,.184-1.75A2.086,2.086,0,0,1,1.654,53.36L99.021,24.988a2.287,2.287,0,0,1,2.856,1.566l2.073,7.093a2.318,2.318,0,0,1-1.428,2.81,2.547,2.547,0,0,0,1.428,4.882,2.3,2.3,0,0,1,2.717,1.612l.967,3.27a2.246,2.246,0,0,1-.23,1.8,2.409,2.409,0,0,1-1.474,1.105,1.729,1.729,0,0,0-.645.23,2.577,2.577,0,0,0,2.073,4.7,2.425,2.425,0,0,1,1.8.138,2.261,2.261,0,0,1,1.151,1.428l.875,2.994a2.318,2.318,0,0,1-1.428,2.81,3.173,3.173,0,0,0-.368.138,2.554,2.554,0,0,0,1.75,4.744,2.325,2.325,0,0,1,2.717,1.612l1.7,5.849A2.191,2.191,0,0,1,114.589,76.482ZM18.143,100.34l92.439-27.451L110.029,71A7.186,7.186,0,0,1,105.562,58.8a7.327,7.327,0,0,1-5.3-3.639,7.231,7.231,0,0,1,1.842-9.166A7.086,7.086,0,0,1,97.133,42.4a7.251,7.251,0,0,1,1.888-9.212L98.1,30.055,5.2,57.137Z" transform="translate(0.008 -24.893)"/>
    </g>
  </g>
</svg>
