<svg id="Group_251" data-name="Group 251" xmlns="http://www.w3.org/2000/svg" viewBox="0 0 100.58 80.598">
  <defs>
    <style>
      .cls-1 {
        fill: #5b1c18;
      }
    </style>
  </defs>
  <g id="Group_237" data-name="Group 237" transform="translate(0 20.446)">
    <g id="Group_236" data-name="Group 236">
      <g id="Group_235" data-name="Group 235">
        <g id="Group_232" data-name="Group 232" transform="translate(9.124)">
          <path id="Path_208" data-name="Path 208" class="cls-1" d="M10.32,23.242a1.654,1.654,0,0,1-1.288-.515A5.719,5.719,0,0,1,8,21.31,6.829,6.829,0,0,1,7.1,17.7a1.842,1.842,0,0,1,1.8-1.8,1.761,1.761,0,0,1,1.8,1.8,2.957,2.957,0,0,0,.515,1.8,1.286,1.286,0,0,0,.515.644,1.791,1.791,0,0,1,0,2.447A1.975,1.975,0,0,1,10.32,23.242Z" transform="translate(-7.1 -15.9)"/>
        </g>
        <g id="Group_233" data-name="Group 233" transform="translate(0.477 12.752)">
          <path id="Path_209" data-name="Path 209" class="cls-1" d="M6.071,30.179a3.031,3.031,0,0,1-1.03-.258l-.773-.386a2.9,2.9,0,0,0-1.8-.129A1.861,1.861,0,0,1,.4,27.99a1.861,1.861,0,0,1,1.417-2.061,6.258,6.258,0,0,1,3.735.386l1.546.773a1.691,1.691,0,0,1,.386,2.447A2.068,2.068,0,0,1,6.071,30.179Z" transform="translate(-0.387 -25.8)"/>
        </g>
        <g id="Group_234" data-name="Group 234" transform="translate(0 3.628)">
          <path id="Path_210" data-name="Path 210" class="cls-1" d="M7.466,26.166a3.031,3.031,0,0,1-1.03-.258L.768,21.915a1.691,1.691,0,0,1-.386-2.447,1.691,1.691,0,0,1,2.447-.386l5.539,3.864a1.691,1.691,0,0,1,.386,2.447A1.417,1.417,0,0,1,7.466,26.166Z" transform="translate(-0.017 -18.717)"/>
        </g>
      </g>
    </g>
  </g>
  <g id="Group_243" data-name="Group 243" transform="translate(86.583 58.954)">
    <g id="Group_242" data-name="Group 242">
      <g id="Group_241" data-name="Group 241">
        <g id="Group_238" data-name="Group 238" transform="translate(0 10.357)">
          <path id="Path_211" data-name="Path 211" class="cls-1" d="M70.667,61a1.923,1.923,0,0,1-1.8-1.674,4.776,4.776,0,0,0-.515-1.8,2.809,2.809,0,0,0-.515-.644A1.733,1.733,0,1,1,70.152,54.3c.386.386.773.9,1.159,1.288A8.558,8.558,0,0,1,72.47,59.07,1.871,1.871,0,0,1,70.667,61Z" transform="translate(-67.237 -53.837)"/>
        </g>
        <g id="Group_239" data-name="Group 239" transform="translate(5.486)">
          <path id="Path_212" data-name="Path 212" class="cls-1" d="M76.009,50.18a11.273,11.273,0,0,1-2.061-.258A3.51,3.51,0,0,1,72.4,49.15a1.789,1.789,0,0,1,1.8-3.091l.773.386a2.87,2.87,0,0,0,1.8,0,1.8,1.8,0,0,1,.9,3.478A4.093,4.093,0,0,1,76.009,50.18Z" transform="translate(-71.496 -45.796)"/>
        </g>
        <g id="Group_240" data-name="Group 240" transform="translate(4.456 6.183)">
          <path id="Path_213" data-name="Path 213" class="cls-1" d="M78.429,57.814a2.388,2.388,0,0,1-.9-.258L71.6,53.95a1.789,1.789,0,0,1,1.8-3.091l5.925,3.607a1.729,1.729,0,0,1,.644,2.447A1.562,1.562,0,0,1,78.429,57.814Z" transform="translate(-70.696 -50.596)"/>
        </g>
      </g>
    </g>
  </g>
  <g id="Group_250" data-name="Group 250" transform="translate(16.83 0)">
    <g id="Group_244" data-name="Group 244" transform="translate(21.607 4.548)">
      <path id="Path_214" data-name="Path 214" class="cls-1" d="M34.936,37.359a2.124,2.124,0,0,1-2.19-1.932L29.912,13.4c-.258-3.607.386-6.183,2.061-7.857a7.672,7.672,0,0,1,6.44-1.932c5.023.515,6.311,6.827,6.44,8.372l3.735,20.738a2.224,2.224,0,1,1-4.379.773l-3.864-21v-.386c-.129-1.03-.9-4.122-2.447-4.251a3.623,3.623,0,0,0-2.834.644q-1.159,1.159-.773,4.251l2.834,21.9A2.179,2.179,0,0,1,35.193,37.1C35.064,37.359,35.064,37.359,34.936,37.359Z" transform="translate(-29.857 -3.557)"/>
    </g>
    <g id="Group_245" data-name="Group 245" transform="translate(36.044)">
      <path id="Path_215" data-name="Path 215" class="cls-1" d="M54.892,38.376h-.258A2.324,2.324,0,0,1,52.7,35.8L56.566,8.493a3.626,3.626,0,0,0-.515-2.576A3.759,3.759,0,0,0,53.99,4.5a3.3,3.3,0,0,0-2.447.515,3.759,3.759,0,0,0-1.417,2.061L45.489,34.383a2.224,2.224,0,1,1-4.379-.773L45.618,6.433a7.772,7.772,0,0,1,14.04-3.091,7.677,7.677,0,0,1,1.288,5.8L57.211,36.444A2.6,2.6,0,0,1,54.892,38.376Z" transform="translate(-41.066 -0.027)"/>
    </g>
    <g id="Group_246" data-name="Group 246" transform="translate(47.609 8.726)">
      <path id="Path_216" data-name="Path 216" class="cls-1" d="M60.935,44.153a2.192,2.192,0,0,1-.9-.129,2.217,2.217,0,0,1-1.159-2.963l10.3-24.6a4.011,4.011,0,0,0-.129-3.22,3.647,3.647,0,0,0-2.19-1.932c-1.417-.386-2.7.644-3.864,3.22l-8.888,20.48a1.877,1.877,0,0,1-2.7,1.159A2.217,2.217,0,0,1,50.245,33.2l8.888-20.48c2.963-6.569,7.342-6.183,9.016-5.667a7.9,7.9,0,0,1,5.023,4.251,8.407,8.407,0,0,1,.129,6.827L63,42.736A2.208,2.208,0,0,1,60.935,44.153Z" transform="translate(-50.045 -6.801)"/>
    </g>
    <g id="Group_247" data-name="Group 247" transform="translate(33.887 42.423)">
      <path id="Path_217" data-name="Path 217" class="cls-1" d="M57.564,42.671a1.937,1.937,0,0,1-1.417-.515,20,20,0,0,0-9.4-4.508,21.926,21.926,0,0,0-5.023-.258,2.193,2.193,0,0,1-.258-4.379,23.576,23.576,0,0,1,6.054.386A24.894,24.894,0,0,1,59.11,38.936a2.225,2.225,0,0,1,.258,3.091A3.418,3.418,0,0,1,57.564,42.671Z" transform="translate(-39.392 -32.963)"/>
    </g>
    <g id="Group_248" data-name="Group 248" transform="translate(1.368 25.618)">
      <path id="Path_218" data-name="Path 218" class="cls-1" d="M51.827,74.9a29.727,29.727,0,0,1-4.766-.386A30.216,30.216,0,0,1,32.249,67.3c-.9-.773-9.274-7.857-17.9-26.534a2.249,2.249,0,1,1,4.122-1.8C26.71,57.12,34.953,63.689,35.082,63.818a.126.126,0,0,1,.129.129A26.313,26.313,0,0,0,47.963,70.13a19.231,19.231,0,0,0,17.26-5.023c4.508-4.251,7.728-10.562,9.145-17.9a2.589,2.589,0,0,1,.515-1.03L89.438,29.041a11.88,11.88,0,0,0,.644-1.03,2.215,2.215,0,0,0-.773-3.091,1.878,1.878,0,0,0-2.7.258l-.129.129-.258.258-13.4,14.169a2.223,2.223,0,0,1-3.091.129,2.349,2.349,0,0,1-.129-3.091L82.869,22.6a1.778,1.778,0,0,0,.386-.515,6.382,6.382,0,0,1,8.63-.9A6.962,6.962,0,0,1,93.946,30.2a10.743,10.743,0,0,1-1.03,1.546.126.126,0,0,1-.129.129L78.49,48.619a36.768,36.768,0,0,1-10.3,19.836A23.863,23.863,0,0,1,51.827,74.9Z" transform="translate(-14.145 -19.916)"/>
    </g>
    <g id="Group_249" data-name="Group 249" transform="translate(0 33.379)">
      <path id="Path_219" data-name="Path 219" class="cls-1" d="M37.836,43.663c-4.766,0-6.44-3.993-7.857-7.213l-.258-.258a11.538,11.538,0,0,0-6.183-5.281,4.7,4.7,0,0,0-3.735,0c-2.447,1.417-2.19,3.349-2.061,3.864.386.773.644,1.546,1.03,2.19a2.249,2.249,0,1,1-4.122,1.8c-.386-.773-.773-1.674-1.159-2.447,0-.129-.129-.129-.129-.258-.644-2.061-.515-6.44,4.122-9.145a8.982,8.982,0,0,1,7.342-.386,15.647,15.647,0,0,1,8.888,7.728l.129.386c1.8,4.122,2.318,5.41,6.44,3.993A2.24,2.24,0,0,1,41.7,42.891,8.973,8.973,0,0,1,37.836,43.663Z" transform="translate(-13.083 -25.941)"/>
    </g>
  </g>
</svg>
