<svg xmlns="http://www.w3.org/2000/svg" viewBox="0 0 117.409 91.484">
  <defs>
    <style>
      .cls-1 {
        fill: #5b1c18;
      }
    </style>
  </defs>
  <g id="Group_215" data-name="Group 215" transform="translate(0)">
    <g id="Group_205" data-name="Group 205" transform="translate(95.593 11.353)">
      <g id="Group_204" data-name="Group 204">
        <g id="Group_203" data-name="Group 203">
          <g id="Group_200" data-name="Group 200" transform="translate(3.773 21.544)">
            <path id="Path_192" data-name="Path 192" class="cls-1" d="M953.2,427.689a2.823,2.823,0,0,1-2.073-.875,5.373,5.373,0,0,0-2.487-1.52,7.212,7.212,0,0,0-1.382-.23,2.831,2.831,0,0,1-2.763-2.9,2.86,2.86,0,0,1,2.9-2.764,14.322,14.322,0,0,1,2.763.415,11.439,11.439,0,0,1,5.066,3.04,2.879,2.879,0,0,1-.092,4.007A2.651,2.651,0,0,1,953.2,427.689Z" transform="translate(-944.497 -419.397)"/>
          </g>
          <g id="Group_201" data-name="Group 201">
            <path id="Path_193" data-name="Path 193" class="cls-1" d="M939.112,381.686a2.811,2.811,0,0,1-2.764-2.349,2.85,2.85,0,0,1,2.3-3.27,6.435,6.435,0,0,0,1.336-.415,5.553,5.553,0,0,0,2.257-1.842,2.838,2.838,0,0,1,4.606,3.316,11.6,11.6,0,0,1-4.56,3.731,11.084,11.084,0,0,1-2.671.783A1.889,1.889,0,0,1,939.112,381.686Z" transform="translate(-936.305 -372.622)"/>
          </g>
          <g id="Group_202" data-name="Group 202" transform="translate(5.308 10.09)">
            <path id="Path_194" data-name="Path 194" class="cls-1" d="M950.671,401.931a2.823,2.823,0,0,1-2.81-2.349,2.883,2.883,0,0,1,2.349-3.27l10.824-1.75a2.847,2.847,0,0,1,.921,5.619l-10.824,1.75Z" transform="translate(-947.829 -394.529)"/>
          </g>
        </g>
      </g>
    </g>
    <g id="Group_206" data-name="Group 206" transform="translate(7.733 19.378)">
      <path id="Path_195" data-name="Path 195" class="cls-1" d="M747.828,397.395a2.292,2.292,0,0,1-.322-4.56l20.035-2.764a2.28,2.28,0,1,1,.645,4.514l-20.035,2.764A.684.684,0,0,1,747.828,397.395Z" transform="translate(-745.547 -390.047)"/>
    </g>
    <g id="Group_207" data-name="Group 207" transform="translate(24.636 7.377)">
      <path id="Path_196" data-name="Path 196" class="cls-1" d="M784.528,380.991a2.292,2.292,0,0,1-.322-4.56,167.51,167.51,0,0,0,43.709-12.252,2.28,2.28,0,1,1,1.8,4.191A173.049,173.049,0,0,1,784.8,380.945.584.584,0,0,1,784.528,380.991Z" transform="translate(-782.247 -363.991)"/>
    </g>
    <g id="Group_208" data-name="Group 208" transform="translate(12.385 53.185)">
      <path id="Path_197" data-name="Path 197" class="cls-1" d="M757.928,470.795a2.292,2.292,0,0,1-.322-4.56l20.035-2.764a2.28,2.28,0,1,1,.645,4.514l-20.036,2.764A.683.683,0,0,1,757.928,470.795Z" transform="translate(-755.647 -463.447)"/>
    </g>
    <g id="Group_209" data-name="Group 209" transform="translate(29.242 52.127)">
      <path id="Path_198" data-name="Path 198" class="cls-1" d="M840.587,467.253h-.322a166.623,166.623,0,0,0-45.414,0,2.28,2.28,0,0,1-.645-4.514,172.04,172.04,0,0,1,46.657,0,2.282,2.282,0,0,1,1.935,2.579A2.234,2.234,0,0,1,840.587,467.253Z" transform="translate(-792.247 -461.15)"/>
    </g>
    <g id="Group_210" data-name="Group 210" transform="translate(68.998 0)">
      <path id="Path_199" data-name="Path 199" class="cls-1" d="M892.213,411.915a6.54,6.54,0,0,1-4.053-1.382,6.918,6.918,0,0,1-2.625-4.468l-6.909-50.2a6.747,6.747,0,0,1,5.757-7.6l1.75-.23a6.816,6.816,0,0,1,4.974,1.29,6.918,6.918,0,0,1,2.625,4.468l6.909,50.2a6.747,6.747,0,0,1-5.757,7.6l-1.75.23A2.983,2.983,0,0,1,892.213,411.915Zm-5.113-59.37h-.276l-1.75.23a2.141,2.141,0,0,0-1.842,2.441l6.909,50.2a2.287,2.287,0,0,0,.829,1.428,2.012,2.012,0,0,0,1.612.415h0l1.75-.23a2.141,2.141,0,0,0,1.842-2.441l-6.909-50.2a2.287,2.287,0,0,0-.829-1.428A2.835,2.835,0,0,0,887.1,352.546Z" transform="translate(-878.562 -347.974)"/>
    </g>
    <g id="Group_211" data-name="Group 211" transform="translate(7.733 22.142)">
      <path id="Path_200" data-name="Path 200" class="cls-1" d="M752.48,434.346a2.281,2.281,0,0,1-2.257-1.98l-4.652-33.715a2.28,2.28,0,1,1,4.514-.645l4.652,33.715A2.282,2.282,0,0,1,752.8,434.3.783.783,0,0,1,752.48,434.346Z" transform="translate(-745.547 -396.047)"/>
    </g>
    <g id="Group_212" data-name="Group 212" transform="translate(0 29.164)">
      <path id="Path_201" data-name="Path 201" class="cls-1" d="M741.259,435.984h0a12.538,12.538,0,0,1-3.408-24.6,2.274,2.274,0,1,1,1.244,4.376,7.958,7.958,0,0,0,2.165,15.614,2.3,2.3,0,0,1,2.257,2.3A2.271,2.271,0,0,1,741.259,435.984Z" transform="translate(-728.758 -411.293)"/>
    </g>
    <g id="Group_213" data-name="Group 213" transform="translate(28.828 19.24)">
      <path id="Path_202" data-name="Path 202" class="cls-1" d="M798.28,428.046a2.281,2.281,0,0,1-2.257-1.981l-4.652-33.715a2.28,2.28,0,0,1,4.514-.645l4.652,33.715A2.282,2.282,0,0,1,798.6,428,.9.9,0,0,1,798.28,428.046Z" transform="translate(-791.347 -389.747)"/>
    </g>
    <g id="Group_214" data-name="Group 214" transform="translate(20.851 52.961)">
      <path id="Path_203" data-name="Path 203" class="cls-1" d="M791.563,501.483a8.5,8.5,0,0,1-8.106-5.849l-9.3-27.912a2.221,2.221,0,0,1,.23-1.934A2.264,2.264,0,0,1,776,464.728l12.666-1.75a2.328,2.328,0,0,1,2.487,1.52l8.567,25.7a8.5,8.5,0,0,1-.829,7.231,8.622,8.622,0,0,1-6.126,3.961h0A5.668,5.668,0,0,1,791.563,501.483Zm.829-2.349Zm-13.081-30.261,8.429,25.286a3.943,3.943,0,0,0,4.329,2.671h0a4.051,4.051,0,0,0,2.856-1.842,3.952,3.952,0,0,0,.414-3.362l-7.968-23.858Z" transform="translate(-774.027 -462.96)"/>
    </g>
  </g>
</svg>
