<svg id="Group_168" data-name="Group 168" xmlns="http://www.w3.org/2000/svg" viewBox="0 0 101.038 97.692">
  <defs>
    <style>
      .cls-1 {
        fill: #5b1c18;
      }
    </style>
  </defs>
  <g id="Group_167" data-name="Group 167" transform="translate(0 0)">
    <g id="Group_166" data-name="Group 166">
      <g id="Group_156" data-name="Group 156" transform="translate(26.554 17.166)">
        <path id="Path_162" data-name="Path 162" class="cls-1" d="M978.549,67.994a2.732,2.732,0,0,1-1.059-.23,2.5,2.5,0,0,1-1.151-3.27l8.291-17.226A3.574,3.574,0,1,0,978.273,44L967.08,66.613a2.441,2.441,0,1,1-4.376-2.165L973.9,41.833a8.425,8.425,0,1,1,15.061,7.554l-8.291,17.18A2.187,2.187,0,0,1,978.549,67.994Z" transform="translate(-962.453 -37.165)"/>
      </g>
      <g id="Group_157" data-name="Group 157" transform="translate(40.279 17.166)">
        <path id="Path_163" data-name="Path 163" class="cls-1" d="M1004.388,74.811a2.449,2.449,0,0,1-2.165-3.547l12.159-24.089a3.578,3.578,0,0,0-1.566-4.79,3.5,3.5,0,0,0-2.717-.184,3.344,3.344,0,0,0-2.073,1.8L996.88,66.659a2.441,2.441,0,1,1-4.376-2.165l11.146-22.661a8.425,8.425,0,1,1,15.061,7.554l-12.159,24.089A2.508,2.508,0,0,1,1004.388,74.811Z" transform="translate(-992.252 -37.165)"/>
      </g>
      <g id="Group_158" data-name="Group 158" transform="translate(49.988 25.64)">
        <path id="Path_164" data-name="Path 164" class="cls-1" d="M1024.509,94.453a2.484,2.484,0,0,1-2.211-3.547l12.666-25.286a3.564,3.564,0,1,0-6.356-3.224l-10.685,21a2.431,2.431,0,0,1-4.33-2.211l10.685-21a8.435,8.435,0,0,1,15.061,7.6l-12.666,25.286A2.414,2.414,0,0,1,1024.509,94.453Z" transform="translate(-1013.332 -55.563)"/>
      </g>
      <g id="Group_159" data-name="Group 159" transform="translate(34.583 55.036)">
        <path id="Path_165" data-name="Path 165" class="cls-1" d="M997.44,134.775a2.477,2.477,0,0,1-2.027-1.105,21.346,21.346,0,0,0-8.521-7.646,22.617,22.617,0,0,0-5.112-1.842,2.43,2.43,0,1,1,1.059-4.744A26.519,26.519,0,0,1,999.513,131a2.4,2.4,0,0,1-.737,3.362A2.259,2.259,0,0,1,997.44,134.775Z" transform="translate(-979.885 -119.385)"/>
      </g>
      <g id="Group_160" data-name="Group 160" transform="translate(86.564 44.929)">
        <path id="Path_166" data-name="Path 166" class="cls-1" d="M1095.717,107.1a3.556,3.556,0,0,1-.691-.092,2.414,2.414,0,0,1-1.658-2.994,4.31,4.31,0,0,0,.046-2.027,3.848,3.848,0,0,0-.368-.921,2.443,2.443,0,1,1,4.283-2.349,8.375,8.375,0,0,1,.783,2.027,8.689,8.689,0,0,1-.092,4.606A2.364,2.364,0,0,1,1095.717,107.1Z" transform="translate(-1092.743 -97.443)"/>
      </g>
      <g id="Group_161" data-name="Group 161" transform="translate(94.127 39.274)">
        <path id="Path_167" data-name="Path 167" class="cls-1" d="M1113,102.821a3.555,3.555,0,0,1-.691-.092,2.463,2.463,0,0,1-1.658-3.04,14.022,14.022,0,0,0,.138-7.554,13.14,13.14,0,0,0-1.336-3.362,2.443,2.443,0,0,1,4.283-2.349,19.58,19.58,0,0,1,1.75,4.468,19.383,19.383,0,0,1-.184,10.133A2.355,2.355,0,0,1,1113,102.821Z" transform="translate(-1109.163 -85.163)"/>
      </g>
      <g id="Group_162" data-name="Group 162" transform="translate(32.029 9.304)">
        <path id="Path_168" data-name="Path 168" class="cls-1" d="M976.763,27.973a2.231,2.231,0,0,1-1.2-.322,2.466,2.466,0,0,1-.921-3.316,8.19,8.19,0,0,1,1.29-1.75,8.85,8.85,0,0,1,3.961-2.4,2.436,2.436,0,1,1,1.29,4.7,3.974,3.974,0,0,0-1.8,1.059,5.023,5.023,0,0,0-.6.783A2.166,2.166,0,0,1,976.763,27.973Z" transform="translate(-974.34 -20.095)"/>
      </g>
      <g id="Group_163" data-name="Group 163" transform="translate(24.015)">
        <path id="Path_169" data-name="Path 169" class="cls-1" d="M959.362,12.84a2.231,2.231,0,0,1-1.2-.322,2.466,2.466,0,0,1-.921-3.316,18.353,18.353,0,0,1,2.9-3.915,19.442,19.442,0,0,1,8.8-5.3,2.4,2.4,0,0,1,2.994,1.7,2.406,2.406,0,0,1-1.7,2.994,14.5,14.5,0,0,0-6.586,3.961,15.186,15.186,0,0,0-2.165,2.948A2.5,2.5,0,0,1,959.362,12.84Z" transform="translate(-956.94 0.105)"/>
      </g>
      <g id="Group_164" data-name="Group 164" transform="translate(0.437 41.464)">
        <path id="Path_170" data-name="Path 170" class="cls-1" d="M944.324,146.148a32.92,32.92,0,0,1-14.785-3.547,33.307,33.307,0,0,1-13.265-12.113c-.737-1.059-7.323-11.054-10.5-33.3a2.443,2.443,0,0,1,4.836-.691c3.132,21.924,9.626,31.136,9.672,31.228.046.046.046.092.092.138a28.821,28.821,0,0,0,11.376,10.409c13.91,7,30.353,1.474,37.446-12.62l13.357-25.7a3.584,3.584,0,0,0-6.4-3.224l-7.461,14.923a2.441,2.441,0,1,1-4.376-2.165l7.461-14.923a8.435,8.435,0,1,1,15.061,7.6l-13.357,25.7A32.575,32.575,0,0,1,944.324,146.148Z" transform="translate(-905.749 -89.919)"/>
      </g>
      <g id="Group_165" data-name="Group 165" transform="translate(0 37.001)">
        <path id="Path_171" data-name="Path 171" class="cls-1" d="M931.7,104.581c-8.475,0-9.212-6.034-9.764-10.5l-.046-.368c-.276-2.441-2.441-5.711-4.882-7.415a5.138,5.138,0,0,0-3.961-1.105c-3.04.691-3.362,2.9-3.408,3.408.092.921.23,1.8.368,2.671a2.443,2.443,0,1,1-4.836.691c-.138-.967-.276-1.934-.368-2.948v-.322a8.775,8.775,0,0,1,7.185-8.245,9.57,9.57,0,0,1,7.83,1.888c3.593,2.533,6.448,6.955,6.909,10.778l.046.368c.6,4.928.783,6.4,5.481,6.218a2.443,2.443,0,1,1,.184,4.882Z" transform="translate(-904.8 -80.229)"/>
      </g>
    </g>
  </g>
</svg>
