<?xml version="1.0" encoding="utf-8"?>
<!-- Generator: Adobe Illustrator 21.0.0, SVG Export Plug-In . SVG Version: 6.00 Build 0)  -->
<svg version="1.1" id="Capa_1" xmlns="http://www.w3.org/2000/svg" xmlns:xlink="http://www.w3.org/1999/xlink" x="0px" y="0px"
	 viewBox="0 0 280 280" style="enable-background:new 0 0 280 280;" xml:space="preserve">
<style type="text/css">
	.st0{fill:#9D9D9D;}
	.st1{fill:url(#SVGID_1_);}
	.st2{fill:url(#SVGID_2_);}
	.st3{fill:url(#SVGID_3_);}
	.st4{fill:url(#SVGID_4_);}
	.st5{fill:url(#SVGID_5_);}
	.st6{fill:url(#SVGID_6_);}
	.st7{fill:url(#SVGID_7_);}
	.st8{fill:url(#SVGID_8_);}
	.st9{fill:url(#SVGID_9_);}
	.st10{fill:url(#SVGID_10_);}
	.st11{fill:url(#SVGID_11_);}
	.st12{fill:url(#SVGID_12_);}
	.st13{fill:url(#SVGID_13_);}
	.st14{fill:#6E6E6D;}
	.st15{fill:#FFFFFF;}
	.st16{fill:url(#SVGID_14_);}
	.st17{fill:url(#SVGID_15_);}
	.st18{fill:url(#SVGID_16_);}
	.st19{fill:url(#SVGID_17_);}
	.st20{fill:url(#SVGID_18_);}
	.st21{fill:url(#SVGID_19_);}
	.st22{fill:url(#SVGID_20_);}
</style>
<g>
	<path class="st0" d="M169.3,156.3l-6.4-9.6c0,0,0,0,0,0c0,0,0,0,0,0c-2.3,1.4-4.7,2.6-7.2,3.5c-4.2,1.5-8.8,2.4-13.5,2.4
		c-7.3,0-14.2-2-20.1-5.5c-0.1-0.1-0.3-0.2-0.4-0.3c0,0,0,0,0,0c-5,3.6-11,5.8-17.6,5.8c-12.7,0-23.6-8.1-28-19.5l0,0
		c-1.4-3.6-2.2-7.6-2.2-11.7c0-6.9,2.2-13.4,5.9-18.6c0.3-0.4,0.5-0.7,0.8-1.1c0.3-0.3,0.5-0.7,0.8-1c0,0,0,0,0-0.1
		c0.3-0.4,0.7-0.8,1.1-1.2c0.4-0.4,0.7-0.8,1.1-1.1c0.1-0.1,0.3-0.3,0.4-0.4c0.3-0.2,0.5-0.5,0.8-0.7c0.2-0.1,0.3-0.3,0.5-0.4
		c0.3-0.2,0.5-0.4,0.8-0.6c0.2-0.2,0.4-0.3,0.6-0.5c0.2-0.2,0.4-0.3,0.7-0.5c0.7-0.4,1.3-0.9,2-1.3c0.2-0.1,0.5-0.3,0.7-0.4
		c0.2-0.1,0.3-0.2,0.5-0.2c0.2-0.1,0.3-0.2,0.5-0.3c0.4-0.2,0.9-0.4,1.4-0.6c0.2-0.1,0.4-0.2,0.6-0.2c0.2-0.1,0.5-0.2,0.7-0.3
		c0.2-0.1,0.5-0.2,0.7-0.3c0.8-0.3,1.5-0.5,2.3-0.7c0.3-0.1,0.5-0.1,0.8-0.2c0.3-0.1,0.5-0.1,0.8-0.2c0.3-0.1,0.6-0.1,1-0.2
		c0.2,0,0.4-0.1,0.5-0.1c0.1,0,0.2,0,0.3,0c0.2,0,0.4-0.1,0.7-0.1c0.3,0,0.6-0.1,0.8-0.1c0.2,0,0.4,0,0.7-0.1c0.2,0,0.4,0,0.6,0
		c0.1,0,0.3,0,0.4,0c0.3,0,0.6,0,0.8,0c1,0,2,0.1,2.9,0.1c0,0,0-0.1,0.1-0.1l-10.8-5.4c-1.3-0.1-2.5-0.2-3.8-0.2c-0.3,0-0.6,0-0.9,0
		c-0.2,0-0.4,0-0.5,0c-0.4,0-0.9,0-1.3,0.1c-0.3,0-0.5,0-0.8,0.1c-0.3,0-0.6,0.1-0.9,0.1c-1.4,0.2-2.9,0.4-4.3,0.7
		c-0.2,0.1-0.5,0.1-0.7,0.2c-0.5,0.1-1,0.3-1.6,0.4c-0.2,0.1-0.4,0.1-0.5,0.2c-0.2,0-0.3,0.1-0.5,0.2c-0.3,0.1-0.5,0.2-0.8,0.3
		c-0.8,0.3-1.6,0.6-2.4,0.9c-0.2,0.1-0.5,0.2-0.7,0.3c-0.3,0.1-0.6,0.3-0.9,0.4c-0.2,0.1-0.4,0.2-0.6,0.3c-1.1,0.5-2.1,1.1-3.2,1.7
		c-0.3,0.2-0.5,0.3-0.8,0.5c-0.2,0.1-0.4,0.3-0.6,0.4c-0.2,0.1-0.3,0.2-0.5,0.3c-0.4,0.3-0.8,0.6-1.3,0.9c-0.2,0.2-0.4,0.3-0.7,0.5
		c-0.6,0.4-1.1,0.9-1.6,1.3c-0.2,0.2-0.4,0.4-0.6,0.6c-1.4,1.3-2.7,2.7-3.9,4.1c-0.2,0.2-0.4,0.5-0.6,0.7c-0.2,0.3-0.4,0.5-0.6,0.8
		c-0.2,0.2-0.3,0.4-0.5,0.6c-0.1,0.1-0.2,0.3-0.3,0.4c-0.2,0.2-0.3,0.5-0.5,0.7c-0.9,1.4-1.8,2.9-2.6,4.4c-0.1,0.2-0.2,0.4-0.3,0.6
		c-0.3,0.5-0.5,1.1-0.7,1.6c-0.2,0.5-0.4,1-0.6,1.6c-0.1,0.3-0.2,0.5-0.3,0.8c-0.1,0.3-0.2,0.5-0.3,0.8c-0.1,0.3-0.2,0.5-0.3,0.8
		c-0.1,0.2-0.1,0.5-0.2,0.7c-0.1,0.2-0.1,0.4-0.2,0.7c-0.1,0.3-0.1,0.5-0.2,0.8c-0.1,0.4-0.2,0.7-0.2,1.1c-0.5,2.6-0.8,5.2-0.8,8
		c0,4.8,0.9,9.4,2.4,13.7c4.5,12.2,14.9,21.6,27.7,24.7c-8.2-16.2-7.1-29.5-7.1-29.5l0,0l0,0c0,0-1.1,13.3,7.1,29.5
		c3,0.7,6.2,1.1,9.4,1.1c8.6,0,16.5-2.7,22.9-7.3c7.9,4.6,17.1,7.3,26.9,7.3C152.2,163.7,161.4,161,169.3,156.3z"/>
	<path class="st0" d="M198.7,163.1c0.2,0,0.4-0.1,0.6-0.1c0.2,0,0.4-0.1,0.6-0.1c0.6-0.1,1.1-0.2,1.7-0.4c0.3-0.1,0.5-0.1,0.8-0.2
		c0,0,0.1,0,0.1,0c0.4-0.1,0.7-0.2,1.1-0.3c0,0,0,0,0,0c0.2-0.1,0.3-0.1,0.5-0.2c0.2-0.1,0.4-0.1,0.6-0.2c0.1,0,0.3-0.1,0.4-0.1
		c0.3-0.1,0.5-0.2,0.8-0.3c0.1,0,0.2-0.1,0.3-0.1c0.4-0.1,0.7-0.3,1.1-0.4c0.4-0.1,0.7-0.3,1.1-0.5c0.4-0.2,0.8-0.4,1.2-0.6
		c0.4-0.2,0.7-0.4,1.1-0.6c0.4-0.2,0.7-0.4,1.1-0.6c11.4-6.7,19-19.1,19-33.3c0-10.1-3.9-19.3-10.3-26.2
		c-7.1-7.6-17.2-12.4-28.4-12.4c-1,0-1.9,0.1-2.9,0.1C180.4,69.6,162.7,58,142.3,58c-16.6,0-31.3,7.6-41,19.6l12,4.2c0,0,0,0,0,0
		c7.3-7.8,17.6-12.6,28.9-12.6c15.6,0,29.2,9.1,35.9,22.5c0.7-0.1,1.5-0.1,2.2-0.1c7.1,0,13.6,2.6,18.7,6.8
		c6.7,5.6,10.9,14.1,10.9,23.7c0,4.3-0.9,8.5-2.5,12.2c-0.1,0.3-0.3,0.7-0.4,1c-0.2,0.3-0.3,0.7-0.5,1c-0.1,0.3-0.3,0.6-0.4,0.8
		c0,0.1-0.1,0.1-0.1,0.2c-0.1,0.2-0.3,0.5-0.4,0.7c-0.1,0.2-0.2,0.3-0.3,0.5c-0.3,0.6-0.7,1.1-1.1,1.7c-0.1,0.2-0.3,0.4-0.5,0.6
		c-0.3,0.4-0.5,0.7-0.8,1c-0.2,0.3-0.4,0.5-0.6,0.8c-0.2,0.3-0.5,0.5-0.7,0.8c-0.2,0.2-0.4,0.4-0.6,0.6c-0.1,0.1-0.2,0.2-0.3,0.3
		c-0.2,0.2-0.3,0.3-0.5,0.5c0,0-0.1,0.1-0.1,0.1c-0.2,0.2-0.5,0.4-0.7,0.6c-0.6,0.5-1.2,1-1.8,1.4c-0.2,0.2-0.5,0.4-0.7,0.5
		c-0.4,0.3-0.8,0.5-1.1,0.7c-0.2,0.1-0.4,0.2-0.5,0.3c-1,0.6-2,1.1-3.1,1.6c-0.2,0.1-0.4,0.2-0.6,0.3c-0.2,0.1-0.4,0.2-0.6,0.3
		c-0.4,0.2-0.9,0.3-1.3,0.5c-0.4,0.1-0.9,0.3-1.3,0.4c-0.2,0.1-0.4,0.1-0.7,0.2c-0.2,0.1-0.4,0.1-0.7,0.2c-0.2,0.1-0.5,0.1-0.7,0.1
		c-0.2,0-0.5,0.1-0.7,0.1c0,0,0,0,0,0c-0.2,0-0.5,0.1-0.7,0.1c-0.2,0-0.4,0.1-0.6,0.1c-0.5,0.1-1,0.1-1.5,0.2c-0.2,0-0.5,0-0.7,0
		c-0.2,0-0.5,0-0.7,0c-0.2,0-0.5,0-0.7,0c-0.9,0-1.7,0-2.6-0.1l9,10.9c1.7,0.2,3.5,0.4,5.3,0.4c0.4,0,0.7,0,1.1,0c0.3,0,0.6,0,0.8,0
		c0,0,0.1,0,0.1,0c0.1,0,0.3,0,0.4,0c0.2,0,0.4,0,0.6,0c0.3,0,0.6-0.1,1-0.1c0.2,0,0.4,0,0.5-0.1c0.5-0.1,1.1-0.1,1.6-0.2
		C198.4,163.2,198.5,163.2,198.7,163.1z"/>
	<path class="st0" d="M92.5,112.7c-7.1,0-12.9,5.8-12.9,12.9c0,7.1,5.8,12.9,12.9,12.9c4,0,7.6-1.8,10-4.7h32.8l12.8-12.9h28.3
		c2.4,2.9,5.9,4.7,10,4.7c7.1,0,12.9-5.8,12.9-12.9c0-7.1-5.8-12.9-12.9-12.9c-4,0-7.6,1.8-10,4.7h-35.1l-12.8,12.9h-25.9
		C100.1,114.5,96.5,112.7,92.5,112.7z"/>
	<path class="st0" d="M107.9,179.1c-1.2-1.3-2.7-2.2-4.4-2.9c-1.7-0.7-3.6-1.1-5.7-1.1c-2.6,0-4.9,0.5-6.7,1.6c-1.8,1-3.3,2.7-4.4,5
		c-0.8-1.2-1.6-2.2-2.3-3c-0.8-0.8-1.6-1.5-2.5-2c-0.9-0.5-1.8-0.9-2.9-1.1c-1.1-0.2-2.3-0.3-3.7-0.3c-2.7,0-5.1,0.5-7,1.5
		c-2,1-3.6,2.9-5,5.6v-6H53v41.2h10.9v-25c0-5.4,2.2-8,6.6-8c1.2,0,2.2,0.1,3,0.4c0.8,0.3,1.5,0.7,2,1.3c0.5,0.6,0.9,1.5,1.1,2.5
		c0.2,1.1,0.3,2.4,0.3,4.1v24.8h10.9v-24.6c0-2.5,0.7-4.6,2-6.3c1.3-1.7,3-2.5,5-2.5c1.9,0,3.5,0.8,4.7,2.3c1.2,1.6,1.8,3.6,1.8,6.1
		v24.9h10.6v-28.5c0-1.9-0.3-3.7-1-5.4C110.1,181.8,109.1,180.3,107.9,179.1z"/>
	<path class="st0" d="M184.4,195.8c-1.5-0.9-3.4-1.8-5.9-2.5c-2.5-0.7-5.5-1.5-9-2.5c-2.2-0.6-3.8-1.3-5-1.9
		c-1.1-0.7-1.7-1.6-1.7-2.7c0-1.3,0.6-2.2,1.7-2.7c1.1-0.5,2.8-0.8,5.1-0.8c2.3,0,4.1,0.4,5.2,1.3c1.1,0.9,1.9,2.2,2.1,4.1h10.5
		c-0.3-4.2-1.8-7.6-4.5-10c-2.7-2.4-7.1-3.6-13-3.6c-3.2,0-6,0.3-8.2,1c-2.2,0.6-4,1.5-5.4,2.5c-1.4,1.1-2.4,2.3-3,3.7
		c-0.6,1.4-1,2.9-1,4.4c0,1.7,0.2,3.3,0.7,4.7c0.5,1.4,1.4,2.7,2.8,3.9c1.4,1.2,3.3,2.2,5.7,3.2c2.5,1,5.7,1.9,9.7,2.8
		c2.2,0.5,3.9,1.1,5,1.8c1.1,0.7,1.6,1.8,1.6,3.3c0,1.3-0.7,2.3-2.2,3c-1.5,0.6-3.3,1-5.3,1c-2.5,0-4.4-0.5-6-1.6
		c-1.5-1.1-2.3-2.6-2.3-4.5h-11.2c0.1,2.2,0.5,4.1,1.5,5.9c0.9,1.8,2.2,3.3,3.9,4.5c1.7,1.2,3.8,2.2,6.2,2.9c2.4,0.7,5.1,1,8,1
		c6,0,10.6-1.2,13.6-3.6c3.1-2.4,4.6-5.5,4.6-9.2c0-2.4-0.3-4.3-1-5.7C187,197.9,185.9,196.8,184.4,195.8z"/>
	<path class="st0" d="M208,169.5h-10.7v36.8c0,2.2,0.3,4.4,0.9,6.4c0.6,2,1.6,3.8,3,5.3c1.4,1.5,3.1,2.7,5.2,3.6
		c2.1,0.9,4.7,1.3,7.7,1.3c2.9,0,5.4-0.4,7.5-1.3c2.1-0.9,3.8-2.1,5.2-3.6c1.4-1.5,2.4-3.3,3-5.3c0.6-2,1-4.1,1-6.2v-11.7h-10.1
		v10.7c0,2.6-0.5,4.5-1.5,5.9c-1,1.4-2.6,2.1-4.8,2.1c-2.2,0-3.8-0.7-4.8-2.1c-1-1.4-1.5-3.4-1.5-6.1v-16.9h22.8v-7.7H208V169.5z"/>
	<path class="st0" d="M143.2,206.9v-7.1l-8.5-8.5v-5.9c1.8-1.6,2.9-3.8,2.9-6.4c0-4.7-3.8-8.5-8.5-8.5c-4.7,0-8.5,3.8-8.5,8.5
		c0,2.7,1.3,5.2,3.3,6.7v10.1l8.5,8.5v2.2c-2,1.6-3.3,4-3.3,6.7c0,4.7,3.8,8.5,8.5,8.5c4.7,0,8.5-3.8,8.5-8.5
		C146.1,210.8,145,208.5,143.2,206.9z M127.6,194.3L127.6,194.3l6.7,6.6L127.6,194.3z"/>
</g>
<g>
	<linearGradient id="SVGID_1_" gradientUnits="userSpaceOnUse" x1="75.3272" y1="112.627" x2="207.6745" y2="112.627">
		<stop  offset="0" style="stop-color:#20201E"/>
		<stop  offset="1" style="stop-color:#6E6E6D"/>
	</linearGradient>
	<path class="st1" d="M162.2,146c-6.1,3.7-13.1,5.9-20.7,5.9c-7.5,0-14.5-2.1-20.6-5.8c-5,3.6-11,5.8-17.6,5.8
		c-12.7,0-23.6-8.1-28-19.5l0,0c0,0-1.1,13.3,7.1,29.5c3,0.7,6.2,1.1,9.4,1.1c8.6,0,16.5-2.7,22.9-7.3c7.9,4.6,17.1,7.3,26.9,7.3
		c9.9,0,19.1-2.7,27-7.4L162.2,146z M207.7,159.5l-7.9-15.7c-0.1,0.1-0.2,0.2-0.4,0.3c0,0-0.1,0.1-0.1,0.1c-0.2,0.2-0.5,0.4-0.7,0.6
		c-0.6,0.5-1.2,1-1.8,1.4c-0.2,0.2-0.5,0.4-0.7,0.5c-0.4,0.3-0.8,0.5-1.1,0.7c-0.2,0.1-0.4,0.2-0.5,0.3c-1,0.6-2,1.1-3.1,1.6
		c-0.2,0.1-0.4,0.2-0.6,0.3c-0.2,0.1-0.4,0.2-0.6,0.3c-0.4,0.2-0.9,0.3-1.3,0.5c-0.4,0.1-0.9,0.3-1.3,0.4c-0.2,0.1-0.4,0.1-0.7,0.2
		c-0.2,0.1-0.4,0.1-0.7,0.2c-0.2,0.1-0.5,0.1-0.7,0.1c-0.2,0-0.5,0.1-0.7,0.1c0,0,0,0,0,0c-0.2,0-0.5,0.1-0.7,0.1
		c-0.2,0-0.4,0.1-0.6,0.1c-0.5,0.1-1,0.1-1.5,0.2c-0.2,0-0.5,0-0.7,0c-0.2,0-0.5,0-0.7,0c-0.2,0-0.5,0-0.7,0c-0.9,0-1.7,0-2.6-0.1
		l9,10.9c1.7,0.2,3.5,0.4,5.3,0.4c0.4,0,0.7,0,1.1,0c0.3,0,0.6,0,0.8,0c0,0,0.1,0,0.1,0c0.1,0,0.3,0,0.4,0c0.2,0,0.4,0,0.6,0
		c0.3,0,0.6-0.1,1-0.1c0.2,0,0.4,0,0.5-0.1c0.5-0.1,1.1-0.1,1.6-0.2c0.2,0,0.3-0.1,0.5-0.1c0.2,0,0.4-0.1,0.6-0.1
		c0.2,0,0.4-0.1,0.6-0.1c0.6-0.1,1.1-0.2,1.7-0.4c0.3-0.1,0.5-0.1,0.8-0.2c0,0,0.1,0,0.1,0c0.4-0.1,0.7-0.2,1.1-0.3c0,0,0,0,0,0
		c0.2-0.1,0.3-0.1,0.5-0.2c0.2-0.1,0.4-0.1,0.6-0.2c0.1,0,0.3-0.1,0.4-0.1c0.3-0.1,0.5-0.2,0.8-0.3c0.1,0,0.2-0.1,0.3-0.1
		c0.4-0.1,0.7-0.3,1.1-0.4C207,159.8,207.3,159.6,207.7,159.5L207.7,159.5z M149.6,62.8c-30.8-4.6-36.8,17.6-37,18.2
		c7.3-7.8,17.6-12.6,28.9-12.6c15.6,0,29.2,9.1,35.9,22.5C173.7,66.6,149.6,62.8,149.6,62.8z"/>
	<linearGradient id="SVGID_2_" gradientUnits="userSpaceOnUse" x1="100.6198" y1="77.7525" x2="219.8159" y2="77.7525">
		<stop  offset="0" style="stop-color:#20201E"/>
		<stop  offset="1" style="stop-color:#6E6E6D"/>
	</linearGradient>
	<path class="st2" d="M219.8,98.2c-8.9-2.1-16.9-1.3-21.5-0.4c-5.1-4.3-11.6-6.8-18.7-6.8c-0.7,0-1.5,0-2.2,0.1
		c-3.7-24.4-27.8-28.2-27.8-28.2c-30.8-4.6-36.8,17.6-37,18.2c0,0,0,0,0,0l-12-4.2c9.7-11.9,24.5-19.6,41-19.6
		c20.4,0,38.1,11.6,46.9,28.5c1-0.1,1.9-0.1,2.9-0.1C202.7,85.7,212.8,90.5,219.8,98.2z"/>
	<linearGradient id="SVGID_3_" gradientUnits="userSpaceOnUse" x1="120.9875" y1="153.0644" x2="162.2221" y2="153.0644">
		<stop  offset="0" style="stop-color:#20201E"/>
		<stop  offset="1" style="stop-color:#6E6E6D"/>
	</linearGradient>
	<path class="st3" d="M162.2,146c-23.3,31.6-41.2,0.1-41.2,0.1c6,3.7,13.1,5.8,20.6,5.8C149.1,151.9,156.2,149.8,162.2,146z"/>
	<linearGradient id="SVGID_4_" gradientUnits="userSpaceOnUse" x1="54.7337" y1="132.022" x2="82.4555" y2="132.022">
		<stop  offset="0" style="stop-color:#20201E"/>
		<stop  offset="1" style="stop-color:#515150"/>
	</linearGradient>
	<path class="st4" d="M82.5,161.9c-12.8-3.1-23.2-12.5-27.7-24.7c3.7-23.6,18.5-32.4,24.4-35c-3.7,5.2-5.9,11.6-5.9,18.6
		c0,4.2,0.8,8.1,2.2,11.7l0,0C75.4,132.4,74.2,145.8,82.5,161.9z"/>
	<linearGradient id="SVGID_5_" gradientUnits="userSpaceOnUse" x1="105.9451" y1="88.6337" x2="46.5208" y2="122.9424">
		<stop  offset="0" style="stop-color:#20201E"/>
		<stop  offset="1" style="stop-color:#6E6E6D"/>
	</linearGradient>
	<path class="st5" d="M106.4,89.5c0,0-0.1,0.1-0.1,0.1c-1-0.1-1.9-0.1-2.9-0.1c-0.3,0-0.6,0-0.8,0c-0.1,0-0.3,0-0.4,0
		c-0.2,0-0.4,0-0.6,0c-0.2,0-0.5,0-0.7,0.1c-0.3,0-0.6,0.1-0.8,0.1c-0.2,0-0.5,0.1-0.7,0.1c-0.1,0-0.2,0-0.3,0
		c-0.2,0-0.4,0.1-0.5,0.1c-0.3,0.1-0.7,0.1-1,0.2c-0.3,0.1-0.5,0.1-0.8,0.2c-0.3,0.1-0.5,0.1-0.8,0.2c-0.8,0.2-1.6,0.4-2.3,0.7
		c-0.2,0.1-0.5,0.2-0.7,0.3c-0.3,0.1-0.5,0.2-0.7,0.3c-0.2,0.1-0.4,0.2-0.6,0.2c-0.5,0.2-0.9,0.4-1.4,0.6c-0.2,0.1-0.3,0.2-0.5,0.3
		c-0.2,0.1-0.3,0.2-0.5,0.2c-0.2,0.1-0.5,0.3-0.7,0.4c-0.7,0.4-1.4,0.8-2,1.3c-0.2,0.2-0.4,0.3-0.7,0.5c-0.2,0.1-0.4,0.3-0.6,0.5
		c-0.3,0.2-0.5,0.4-0.8,0.6c-0.2,0.1-0.3,0.3-0.5,0.4c-0.3,0.2-0.5,0.5-0.8,0.7c-0.1,0.1-0.3,0.2-0.4,0.4c-0.4,0.4-0.8,0.7-1.1,1.1
		c-0.4,0.4-0.7,0.8-1.1,1.2c0,0,0,0,0,0.1c-0.3,0.3-0.6,0.7-0.8,1c-0.3,0.4-0.6,0.7-0.8,1.1c-5.9,2.6-20.6,11.5-24.4,35
		c-1.6-4.3-2.4-8.9-2.4-13.7c0-2.7,0.3-5.4,0.8-8c0.1-0.4,0.2-0.7,0.2-1.1c0.1-0.3,0.1-0.5,0.2-0.8c0.1-0.2,0.1-0.5,0.2-0.7
		c0.1-0.2,0.1-0.5,0.2-0.7c0.1-0.3,0.2-0.5,0.3-0.8c0.1-0.3,0.2-0.5,0.3-0.8c0.1-0.3,0.2-0.5,0.3-0.8c0.2-0.5,0.4-1.1,0.6-1.6
		c0.2-0.6,0.5-1.1,0.7-1.6c0.1-0.2,0.2-0.4,0.3-0.6c0.8-1.5,1.6-3,2.6-4.4c0.2-0.2,0.3-0.5,0.5-0.7c0.1-0.1,0.2-0.3,0.3-0.4
		c0.2-0.2,0.3-0.4,0.5-0.6c0.2-0.3,0.4-0.5,0.6-0.8c0.2-0.2,0.4-0.5,0.6-0.7c1.2-1.5,2.5-2.8,3.9-4.1c0.2-0.2,0.4-0.4,0.6-0.6
		c0.5-0.5,1.1-0.9,1.6-1.3c0.2-0.2,0.4-0.3,0.7-0.5c0.4-0.3,0.8-0.6,1.3-0.9c0.2-0.1,0.3-0.2,0.5-0.3c0.2-0.1,0.4-0.3,0.6-0.4
		c0.3-0.2,0.5-0.3,0.8-0.5c1-0.6,2.1-1.2,3.2-1.7c0.2-0.1,0.4-0.2,0.6-0.3c0.3-0.1,0.6-0.3,0.9-0.4c0.2-0.1,0.5-0.2,0.7-0.3
		c0.8-0.3,1.6-0.6,2.4-0.9c0.3-0.1,0.5-0.2,0.8-0.3c0.2-0.1,0.3-0.1,0.5-0.2c0.2-0.1,0.3-0.1,0.5-0.2c0.5-0.1,1-0.3,1.6-0.4
		c0.2-0.1,0.5-0.1,0.7-0.2c1.4-0.3,2.8-0.6,4.3-0.7c0.3,0,0.6-0.1,0.9-0.1c0.3,0,0.5,0,0.8-0.1c0.4,0,0.9-0.1,1.3-0.1
		c0.2,0,0.4,0,0.5,0c0.3,0,0.6,0,0.9,0c1.3,0,2.6,0.1,3.8,0.2L106.4,89.5z"/>
	<linearGradient id="SVGID_6_" gradientUnits="userSpaceOnUse" x1="112.6267" y1="76.5998" x2="177.4438" y2="76.5998">
		<stop  offset="1.058201e-02" style="stop-color:#515150"/>
		<stop  offset="1" style="stop-color:#20201E"/>
	</linearGradient>
	<path class="st6" d="M177.4,91c-6.7-13.4-20.3-22.5-35.9-22.5c-11.3,0-21.6,4.8-28.9,12.6c0.2-0.6,6.2-22.8,37-18.2
		C149.6,62.8,173.7,66.6,177.4,91z"/>
	<linearGradient id="SVGID_7_" gradientUnits="userSpaceOnUse" x1="187.7622" y1="163.6207" x2="199.4915" y2="143.305">
		<stop  offset="0" style="stop-color:#20201E"/>
		<stop  offset="1" style="stop-color:#6E6E6D"/>
	</linearGradient>
	<path class="st7" d="M207.7,159.5c-0.3,0.2-0.7,0.3-1.1,0.5c-0.3,0.1-0.7,0.3-1.1,0.4c-0.1,0-0.2,0.1-0.3,0.1
		c-0.3,0.1-0.5,0.2-0.8,0.3c-0.1,0.1-0.3,0.1-0.4,0.1c-0.2,0.1-0.4,0.1-0.6,0.2c-0.2,0.1-0.3,0.1-0.5,0.2c0,0,0,0,0,0
		c-0.4,0.1-0.7,0.2-1.1,0.3c0,0-0.1,0-0.1,0c-0.3,0.1-0.5,0.1-0.8,0.2c-0.6,0.1-1.1,0.3-1.7,0.4c-0.2,0-0.4,0.1-0.6,0.1
		c-0.2,0-0.4,0.1-0.6,0.1c-0.2,0-0.3,0.1-0.5,0.1c-0.5,0.1-1,0.2-1.6,0.2c-0.2,0-0.4,0-0.5,0.1c-0.3,0-0.6,0.1-1,0.1
		c-0.2,0-0.4,0-0.6,0c-0.1,0-0.3,0-0.4,0c0,0-0.1,0-0.1,0c-0.3,0-0.6,0-0.8,0c-0.4,0-0.7,0-1.1,0c-1.8,0-3.6-0.1-5.3-0.4l-9-10.9
		c0.8,0.1,1.7,0.1,2.6,0.1c0.2,0,0.5,0,0.7,0c0.2,0,0.5,0,0.7,0c0.2,0,0.5,0,0.7,0c0.5,0,1-0.1,1.5-0.2c0.2,0,0.4-0.1,0.6-0.1
		c0.2,0,0.5-0.1,0.7-0.1c0,0,0,0,0,0c0.2,0,0.5-0.1,0.7-0.1c0.2,0,0.5-0.1,0.7-0.1c0.2-0.1,0.5-0.1,0.7-0.2c0.2-0.1,0.4-0.1,0.7-0.2
		c0.4-0.1,0.9-0.3,1.3-0.4c0.4-0.1,0.9-0.3,1.3-0.5c0.2-0.1,0.4-0.2,0.6-0.3c0.2-0.1,0.4-0.2,0.6-0.3c1.1-0.5,2.1-1,3.1-1.6
		c0.2-0.1,0.4-0.2,0.5-0.3c0.4-0.2,0.8-0.5,1.1-0.7c0.3-0.2,0.5-0.4,0.7-0.5c0.6-0.4,1.2-0.9,1.8-1.4c0.2-0.2,0.5-0.4,0.7-0.6
		c0,0,0.1-0.1,0.1-0.1c0.2-0.2,0.4-0.3,0.5-0.5c0,0.1-0.1,0.1-0.2,0.2L207.7,159.5z"/>
	<linearGradient id="SVGID_8_" gradientUnits="userSpaceOnUse" x1="214.2046" y1="96.8407" x2="214.2046" y2="159.4733">
		<stop  offset="0" style="stop-color:#20201E"/>
		<stop  offset="1" style="stop-color:#6E6E6D"/>
	</linearGradient>
	<path class="st8" d="M230.1,124.4c0,14.2-7.6,26.5-19,33.3c-0.4,0.2-0.7,0.4-1.1,0.6c-0.4,0.2-0.7,0.4-1.1,0.6
		c-0.4,0.2-0.8,0.4-1.2,0.6l-7.9-15.7c0.1,0,0.1-0.1,0.2-0.2c0.1-0.1,0.2-0.2,0.3-0.3c0.2-0.2,0.4-0.4,0.6-0.6
		c0.2-0.3,0.5-0.5,0.7-0.8c0.2-0.2,0.4-0.5,0.6-0.8c0.3-0.3,0.5-0.7,0.8-1c0.2-0.2,0.3-0.4,0.5-0.6c0.4-0.5,0.8-1.1,1.1-1.7
		c0.1-0.1,0.2-0.3,0.3-0.5c0.1-0.2,0.3-0.5,0.4-0.7c0-0.1,0.1-0.1,0.1-0.2c0.2-0.3,0.3-0.5,0.4-0.8c0.2-0.3,0.3-0.6,0.5-1
		c0.2-0.3,0.3-0.7,0.4-1c1.6-3.7,2.5-7.9,2.5-12.2c0-9.5-4.2-18.1-10.9-23.7c4.6-0.9,12.6-1.7,21.5,0.4
		C226.2,105.1,230.1,114.3,230.1,124.4z"/>
	<linearGradient id="SVGID_9_" gradientUnits="userSpaceOnUse" x1="208.2897" y1="158.8712" x2="208.2897" y2="159.4786">
		<stop  offset="0" style="stop-color:#40403F"/>
		<stop  offset="0.5503" style="stop-color:#6E6E6D"/>
		<stop  offset="1" style="stop-color:#20201E"/>
	</linearGradient>
	<path class="st9" d="M207.7,159.5c0.4-0.2,0.8-0.4,1.2-0.6C208.5,159.1,208.1,159.3,207.7,159.5L207.7,159.5z"/>
	<g>
		<linearGradient id="SVGID_10_" gradientUnits="userSpaceOnUse" x1="91.8255" y1="112.0681" x2="91.8255" y2="137.8582">
			<stop  offset="0" style="stop-color:#40403F"/>
			<stop  offset="0.5503" style="stop-color:#6E6E6D"/>
			<stop  offset="1" style="stop-color:#20201E"/>
		</linearGradient>
		<circle class="st10" cx="91.8" cy="125" r="12.9"/>
		<linearGradient id="SVGID_11_" gradientUnits="userSpaceOnUse" x1="185.5664" y1="99.173" x2="185.5664" y2="124.9631">
			<stop  offset="0" style="stop-color:#40403F"/>
			<stop  offset="0.5503" style="stop-color:#6E6E6D"/>
			<stop  offset="1" style="stop-color:#20201E"/>
		</linearGradient>
		<circle class="st11" cx="185.6" cy="112.1" r="12.9"/>
		<linearGradient id="SVGID_12_" gradientUnits="userSpaceOnUse" x1="91.8258" y1="123.8647" x2="185.5664" y2="123.8647">
			<stop  offset="0" style="stop-color:#20201E"/>
			<stop  offset="1" style="stop-color:#6E6E6D"/>
		</linearGradient>
		<polygon class="st12" points="185.6,114.6 185.6,120.3 147.3,120.3 134.5,133.2 91.8,133.2 91.8,127.5 132.2,127.5 144.9,114.6 		
			"/>
		<linearGradient id="SVGID_13_" gradientUnits="userSpaceOnUse" x1="91.8258" y1="113.1662" x2="185.5664" y2="113.1662">
			<stop  offset="0" style="stop-color:#40403F"/>
			<stop  offset="0.5503" style="stop-color:#6E6E6D"/>
			<stop  offset="1" style="stop-color:#20201E"/>
		</linearGradient>
		<polygon class="st13" points="185.6,103.9 185.6,109.6 142.9,109.6 130.1,122.5 91.8,122.5 91.8,116.8 127.7,116.8 140.5,103.9 		
			"/>
		<polygon class="st14" points="185.6,109.6 185.6,114.6 144.9,114.6 132.2,127.5 91.8,127.5 91.8,122.5 130.1,122.5 142.9,109.6 		
			"/>
		<circle class="st15" cx="91.8" cy="125" r="8.1"/>
		<path class="st15" d="M185.6,104c-3.6,0-6.6,2.3-7.7,5.6h-35l-12.8,12.9H91.8v5h40.3l12.8-12.9h32.9c1.1,3.2,4.1,5.6,7.7,5.6
			c4.5,0,8.1-3.6,8.1-8.1C193.7,107.6,190,104,185.6,104z"/>
	</g>
</g>
<g>
	<linearGradient id="SVGID_14_" gradientUnits="userSpaceOnUse" x1="81.7494" y1="174.4518" x2="81.7494" y2="216.7064">
		<stop  offset="0" style="stop-color:#6E6E6D"/>
		<stop  offset="1" style="stop-color:#20201E"/>
	</linearGradient>
	<path class="st16" d="M110.2,182.8c-0.7-1.7-1.7-3.1-2.9-4.4c-1.2-1.3-2.7-2.2-4.4-2.9c-1.7-0.7-3.6-1.1-5.7-1.1
		c-2.6,0-4.9,0.5-6.7,1.6c-1.8,1-3.3,2.7-4.4,5c-0.8-1.2-1.6-2.2-2.3-3c-0.8-0.8-1.6-1.5-2.5-2c-0.9-0.5-1.8-0.9-2.9-1.1
		c-1.1-0.2-2.3-0.3-3.7-0.3c-2.7,0-5.1,0.5-7,1.5c-2,1-3.6,2.9-5,5.6v-6H52.3v41.2h10.9v-25c0-5.4,2.2-8,6.6-8c1.2,0,2.2,0.1,3,0.4
		c0.8,0.3,1.5,0.7,2,1.3c0.5,0.6,0.9,1.5,1.1,2.5c0.2,1.1,0.3,2.4,0.3,4.1v24.8h10.9v-24.6c0-2.5,0.7-4.6,2-6.3c1.3-1.7,3-2.5,5-2.5
		c1.9,0,3.5,0.8,4.7,2.3c1.2,1.6,1.8,3.6,1.8,6.1v24.9h10.6v-28.5C111.2,186.3,110.8,184.5,110.2,182.8z"/>
	<linearGradient id="SVGID_15_" gradientUnits="userSpaceOnUse" x1="169.0337" y1="173.9107" x2="169.0337" y2="217.2475">
		<stop  offset="0" style="stop-color:#6E6E6D"/>
		<stop  offset="1" style="stop-color:#20201E"/>
	</linearGradient>
	<path class="st17" d="M187,198.7c-0.6-1.4-1.7-2.6-3.2-3.6c-1.5-0.9-3.4-1.8-5.9-2.5c-2.5-0.7-5.5-1.5-9-2.5
		c-2.2-0.6-3.8-1.3-5-1.9c-1.1-0.7-1.7-1.6-1.7-2.7c0-1.3,0.6-2.2,1.7-2.7c1.1-0.5,2.8-0.8,5.1-0.8c2.3,0,4.1,0.4,5.2,1.3
		c1.1,0.9,1.9,2.2,2.1,4.1h10.5c-0.3-4.2-1.8-7.6-4.5-10c-2.7-2.4-7.1-3.6-13-3.6c-3.2,0-6,0.3-8.2,1c-2.2,0.6-4,1.5-5.4,2.5
		c-1.4,1.1-2.4,2.3-3,3.7c-0.6,1.4-1,2.9-1,4.4c0,1.7,0.2,3.3,0.7,4.7c0.5,1.4,1.4,2.7,2.8,3.9c1.4,1.2,3.3,2.2,5.7,3.2
		c2.5,1,5.7,1.9,9.7,2.8c2.2,0.5,3.9,1.1,5,1.8c1.1,0.7,1.6,1.8,1.6,3.3c0,1.3-0.7,2.3-2.2,3c-1.5,0.6-3.3,1-5.3,1
		c-2.5,0-4.4-0.5-6-1.6c-1.5-1.1-2.3-2.6-2.3-4.5h-11.2c0.1,2.2,0.5,4.1,1.5,5.9c0.9,1.8,2.2,3.3,3.9,4.5c1.7,1.2,3.8,2.2,6.2,2.9
		c2.4,0.7,5.1,1,8,1c6,0,10.6-1.2,13.6-3.6c3.1-2.4,4.6-5.5,4.6-9.2C187.9,202,187.6,200.1,187,198.7z"/>
	<linearGradient id="SVGID_16_" gradientUnits="userSpaceOnUse" x1="213.3587" y1="168.8885" x2="213.3587" y2="222.2653">
		<stop  offset="0" style="stop-color:#6E6E6D"/>
		<stop  offset="1" style="stop-color:#20201E"/>
	</linearGradient>
	<path class="st18" d="M230.1,187.7V180h-22.8v-11.1h-10.7v36.8c0,2.2,0.3,4.4,0.9,6.4c0.6,2,1.6,3.8,3,5.3c1.4,1.5,3.1,2.7,5.2,3.6
		c2.1,0.9,4.7,1.3,7.7,1.3c2.9,0,5.4-0.4,7.5-1.3c2.1-0.9,3.8-2.1,5.2-3.6c1.4-1.5,2.4-3.3,3-5.3c0.6-2,1-4.1,1-6.2v-11.7H220v10.7
		c0,2.6-0.5,4.5-1.5,5.9c-1,1.4-2.6,2.1-4.8,2.1c-2.2,0-3.8-0.7-4.8-2.1c-1-1.4-1.5-3.4-1.5-6.1v-16.9H230.1z"/>
	<g>
		
			<linearGradient id="SVGID_17_" gradientUnits="userSpaceOnUse" x1="251.6269" y1="262.0728" x2="280.7268" y2="262.0728" gradientTransform="matrix(6.123234e-17 -1 1 6.123234e-17 -125.6717 464.1716)">
			<stop  offset="0" style="stop-color:#20201E"/>
			<stop  offset="1" style="stop-color:#6E6E6D"/>
		</linearGradient>
		<polygon class="st19" points="130.3,183.4 134,183.4 134,190.7 142.6,199.2 142.6,212.5 138.8,212.5 138.8,200.8 130.3,192.3 		
			"/>
		
			<linearGradient id="SVGID_18_" gradientUnits="userSpaceOnUse" x1="251.6269" y1="254.9978" x2="280.7268" y2="254.9978" gradientTransform="matrix(6.123234e-17 -1 1 6.123234e-17 -125.6717 464.1716)">
			<stop  offset="0" style="stop-color:#40403F"/>
			<stop  offset="0.5503" style="stop-color:#6E6E6D"/>
			<stop  offset="1" style="stop-color:#20201E"/>
		</linearGradient>
		<polygon class="st20" points="123.2,183.4 126.9,183.4 126.9,193.7 135.5,202.1 135.5,212.5 131.7,212.5 131.7,203.7 123.2,195.3 
					"/>
		<polygon class="st14" points="138.8,200.8 138.8,218.1 135.5,218.1 135.5,202.1 126.9,193.7 126.9,177.6 130.3,177.6 130.3,192.3 
					"/>
		<g>
			<linearGradient id="SVGID_19_" gradientUnits="userSpaceOnUse" x1="128.4022" y1="169.9577" x2="128.4022" y2="187.0127">
				<stop  offset="0" style="stop-color:#40403F"/>
				<stop  offset="0.5503" style="stop-color:#6E6E6D"/>
				<stop  offset="1" style="stop-color:#20201E"/>
			</linearGradient>
			<circle class="st21" cx="128.4" cy="178.5" r="8.5"/>
			<circle class="st15" cx="128.4" cy="178.5" r="5.4"/>
		</g>
		<g>
			<linearGradient id="SVGID_20_" gradientUnits="userSpaceOnUse" x1="136.9298" y1="204.1433" x2="136.9298" y2="221.1983">
				<stop  offset="0" style="stop-color:#40403F"/>
				<stop  offset="0.5503" style="stop-color:#6E6E6D"/>
				<stop  offset="1" style="stop-color:#20201E"/>
			</linearGradient>
			<circle class="st22" cx="136.9" cy="212.7" r="8.5"/>
			<circle class="st15" cx="136.9" cy="212.7" r="5.4"/>
		</g>
		<polygon class="st15" points="138.8,200.8 138.8,215 135.5,215 135.5,202.1 126.9,193.7 126.9,177.6 130.3,177.6 130.3,192.3 		
			"/>
	</g>
</g>
</svg>
